<?xml version="1.0" standalone="no"?>
<!DOCTYPE svg PUBLIC "-//W3C//DTD SVG 20010904//EN"
 "http://www.w3.org/TR/2001/REC-SVG-20010904/DTD/svg10.dtd">
<svg version="1.0" xmlns="http://www.w3.org/2000/svg"
 width="786.000000pt" height="898.000000pt" viewBox="0 0 786.000000 898.000000"
 preserveAspectRatio="xMidYMid meet">

<g transform="translate(0.000000,898.000000) scale(0.100000,-0.100000)"
fill="#000000" stroke="none">
<path d="M5391 8547 c-100 -242 -184 -433 -198 -448 -16 -18 -155 -80 -454
-204 -236 -98 -428 -179 -427 -180 2 -2 190 -112 418 -245 228 -134 429 -253
445 -265 22 -17 75 -113 210 -384 99 -198 182 -361 185 -361 3 0 90 160 194
355 104 194 200 365 215 378 14 14 204 132 421 262 217 131 403 244 413 250
16 11 -38 37 -400 191 -230 98 -427 188 -438 199 -12 11 -106 212 -210 448
-104 235 -191 427 -194 427 -4 0 -84 -190 -180 -423z"/>
<path d="M1982 7534 c-22 -15 -22 -19 -22 -229 l0 -215 -602 -2 -603 -3 -5
-225 -5 -225 -25 -3 c-123 -15 -304 -97 -412 -186 -126 -105 -236 -277 -284
-446 -18 -62 -19 -168 -22 -2640 -2 -2316 -1 -2584 14 -2660 63 -337 327 -605
667 -675 63 -13 321 -15 1987 -13 l1915 3 74 23 c236 73 427 234 532 448 21
44 49 119 62 165 l22 84 0 2580 c0 2120 -2 2592 -13 2645 -57 273 -245 501
-509 616 l-78 33 -3 241 -2 240 -675 0 -675 0 0 210 c0 197 -1 211 -20 230
-20 20 -33 20 -658 20 -561 0 -640 -2 -660 -16z m2598 -1428 c73 -37 143 -113
172 -184 l23 -57 3 -2505 c2 -1835 0 -2521 -8 -2565 -22 -113 -92 -205 -198
-257 l-47 -23 -1885 0 -1885 0 -47 22 c-71 32 -141 103 -174 176 l-29 62 0
2550 0 2550 26 56 c46 97 128 168 229 200 14 4 866 7 1895 6 l1870 -2 55 -29z"/>
<path d="M1052 4758 l3 -223 1508 -3 1507 -2 0 225 0 225 -1510 0 -1510 0 2
-222z"/>
<path d="M1054 3617 c-2 -7 -3 -109 -2 -227 l3 -215 1508 -3 1507 -2 0 230 0
230 -1505 0 c-1211 0 -1507 -2 -1511 -13z"/>
<path d="M1057 2263 c-4 -3 -7 -105 -7 -225 l0 -218 1510 0 1510 0 0 225 0
225 -1503 0 c-827 0 -1507 -3 -1510 -7z"/>
<path d="M6730 6614 c-77 -186 -144 -336 -158 -349 -13 -13 -157 -78 -330
-150 -169 -70 -317 -132 -329 -139 -20 -10 11 -30 320 -211 l342 -200 145
-287 c80 -159 147 -288 150 -288 3 1 72 126 153 280 82 154 159 288 171 297
12 10 165 103 339 208 174 104 313 193 309 196 -4 3 -147 65 -317 137 -171 73
-320 139 -332 147 -13 9 -76 139 -169 350 -82 184 -151 335 -154 335 -3 0 -66
-147 -140 -326z"/>
</g>
</svg>
